<svg xmlns="http://www.w3.org/2000/svg" fill="none" viewBox="0 0 850 320"><path fill="url(#a)" fill-rule="evenodd" d="M282.6 161.948c3.71 8.128 6.096 16.829 6.899 25.163.855 8.676.039 17.424-2.354 25.276-2.134 7.059-5.628 13.732-10.099 19.29-3.688 4.585-7.958 8.439-12.689 11.445-3.645 2.35-7.461 4.19-11.33 5.454a38.5 38.5 0 0 1-5.068 1.355 3.679 3.679 0 0 1-3.366-1.062 3.728 3.728 0 0 1-.954-3.409c.324-1.447.68-3.123 1.042-4.938.486-2.655 1.101-6.278 1.443-10.252.338-4.383.336-8.163-.011-11.535-.375-3.83-1.186-7.464-2.418-10.818-1.091-2.948-2.556-5.898-4.605-9.273a118.271 118.271 0 0 0-6.398-9.423c-2.153-2.891-4.763-6.156-8.522-10.667-.337-.36-.638-.723-1.004-1.161a84.492 84.492 0 0 0-1.33-1.562l-.777-.895c-.022-.025-1.968-2.309-2.675-3.193-2.374-2.811-4.771-6.159-7.271-10.164-4.731-7.692-8.161-16.092-9.932-24.318-1.865-8.496-2.038-17.655-.48-25.771 1.363-7.374 4.22-14.479 8.253-20.52 3.289-4.94 7.248-9.198 11.766-12.646 3.542-2.695 7.243-4.84 11.007-6.381a41.608 41.608 0 0 1 5.368-1.822 3.685 3.685 0 0 1 3.368.796 3.735 3.735 0 0 1 1.242 3.249c-.215 1.778-.399 3.56-.552 5.346-.234 3.013-.461 6.624-.351 10.38.113 4.232.534 8.064 1.253 11.403.758 3.687 1.959 7.098 3.561 10.161 1.385 2.689 3.05 5.269 5.409 8.388 2.013 2.65 4.336 5.423 7.251 8.656.389.492.826.929 1.212 1.321.295.303.559.575.932.994.505.621 1.118 1.242 1.71 1.841l.541.553c.37.362.741.77 1.183 1.282l1.813 1.989c.786.817 2.309 2.588 3.809 4.437 5.335 6.546 9.754 13.625 13.122 21.031h.002Zm-65.881 48.07c1.73 3.604 2.843 7.461 3.222 11.156.389 3.791 0 7.775-1.104 11.213a25.139 25.139 0 0 1-4.711 8.549 24.047 24.047 0 0 1-5.938 5.082 24.102 24.102 0 0 1-3.851 1.915 3.942 3.942 0 0 1-3.793-.531 3.533 3.533 0 0 1-1.358-3.425c.238-1.336.407-2.538.508-3.678.157-1.919.157-3.596-.005-5.086a18.626 18.626 0 0 0-1.131-4.815c-.508-1.309-1.192-2.616-2.144-4.101a50.808 50.808 0 0 0-2.982-4.176 116.888 116.888 0 0 0-3.957-4.71l-.06-.06a8.171 8.171 0 0 1-.422-.468 23.798 23.798 0 0 0-.636-.713l-.338-.365.006-.005a78.695 78.695 0 0 1-1.306-1.469c-1.075-1.21-2.191-2.693-3.358-4.464-2.217-3.427-3.817-7.155-4.645-10.805-.869-3.762-.947-7.829-.22-11.434a23.844 23.844 0 0 1 9.338-14.691 23.877 23.877 0 0 1 4.094-2.391 3.951 3.951 0 0 1 3.759.279c1.113.724 1.737 1.96 1.641 3.24-.074.972-.164 2.443-.117 3.996.054 1.876.247 3.573.581 5.049.357 1.643.914 3.15 1.661 4.509.817 1.503 1.742 2.732 2.543 3.744a57.534 57.534 0 0 0 3.265 3.697l.128.144c.162.193.35.375.541.564l.326.324c.29.329.597.643.918.941l.238.23c.175.168.339.339.567.582l.871.911c.37.365 1.125 1.206 1.749 1.936a42.593 42.593 0 0 1 6.12 9.324v.002Z" clip-rule="evenodd"/><path id="b" fill="#4A4A4A" d="M409.83 183.759c-2.405 6.8-6.453 11.96-12.145 15.48-5.611 3.44-12.305 5.16-20.08 5.16-6.333 0-11.985-1.04-16.955-3.12-4.89-2.16-9.018-5.16-12.385-9-3.367-3.84-5.932-8.4-7.695-13.68-1.764-5.28-2.646-11.08-2.646-17.4 0-6 .842-11.639 2.525-16.919 1.684-5.28 4.169-9.84 7.455-13.68 3.287-3.92 7.415-7 12.386-9.24 4.97-2.24 10.741-3.36 17.315-3.36 3.527 0 6.934.4 10.22 1.2 3.367.8 6.454 2 9.259 3.6a28.005 28.005 0 0 1 7.576 6.12c2.164 2.4 3.847 5.24 5.05 8.52.641 1.68.521 3.08-.361 4.2-.882 1.04-2.244 1.56-4.088 1.56h-1.924c-1.203 0-2.285-.32-3.247-.96a7.69 7.69 0 0 1-2.284-2.76c-1.924-3.76-4.69-6.48-8.297-8.16-3.607-1.68-7.576-2.52-11.904-2.52-4.73 0-8.818.84-12.265 2.52-3.447 1.68-6.333 4-8.658 6.96-2.244 2.88-3.928 6.32-5.05 10.32-1.122 3.919-1.683 8.119-1.683 12.599 0 4.32.521 8.44 1.563 12.36 1.042 3.84 2.685 7.28 4.93 10.32 2.244 2.96 5.09 5.32 8.537 7.08 3.527 1.76 7.736 2.64 12.626 2.64 4.809 0 8.898-.96 12.265-2.88 3.447-1.92 6.092-4.92 7.936-9 .561-1.12 1.282-2 2.164-2.64a5.283 5.283 0 0 1 3.247-1.08h2.044c1.844 0 3.206.56 4.088 1.68.882 1.04 1.042 2.4.481 4.08Zm24.065 15.12c0 1.2-.441 2.24-1.323 3.12-.802.8-1.763 1.2-2.886 1.2h-3.487c-1.202 0-2.244-.4-3.126-1.2-.802-.88-1.203-1.92-1.203-3.12V123.4c0-1.2.401-2.2 1.203-3 .882-.8 1.924-1.2 3.126-1.2h3.487c1.123 0 2.084.4 2.886 1.2.882.8 1.323 1.8 1.323 3v26.28c2.244-2.56 4.97-4.48 8.176-5.76 3.207-1.28 6.494-1.92 9.86-1.92 4.089 0 7.496 1 10.221 3 2.726 1.92 4.93 4.4 6.614 7.439 1.683 3.04 2.885 6.4 3.607 10.08.721 3.68 1.122 7.24 1.202 10.68v25.68c0 1.2-.441 2.24-1.322 3.12-.802.8-1.764 1.2-2.886 1.2h-3.487c-1.203 0-2.245-.4-3.127-1.2-.801-.88-1.202-1.92-1.202-3.12v-25.68c-.08-1.84-.241-3.56-.481-5.16-.241-1.6-.641-3.08-1.203-4.44-.16-.64-.4-1.24-.721-1.8-.24-.56-.521-1.16-.842-1.8-.721-1.2-1.603-2.2-2.645-3-1.203-1.12-2.525-1.88-3.968-2.28a14.38 14.38 0 0 0-4.569-.72c-1.924 0-3.608.28-5.051.84-2.645.8-4.689 2.32-6.132 4.56-1.363 2.16-2.044 4.6-2.044 7.32v32.16Zm89.078-3c-1.202 2.08-2.926 3.72-5.171 4.92-2.244 1.12-4.449 1.96-6.613 2.52-2.565.64-5.291 1-8.177 1.08-2.645 0-5.13-.48-7.455-1.44a20.395 20.395 0 0 1-6.132-4.2 20.348 20.348 0 0 1-4.209-6.12c-.962-2.32-1.443-4.8-1.443-7.44 0-2.64.481-5.12 1.443-7.44a20.348 20.348 0 0 1 4.209-6.12 18.705 18.705 0 0 1 6.132-4.08c2.325-1.04 4.81-1.56 7.455-1.56h7.095c2.806 0 5.411.36 7.816 1.08 2.405.72 4.088 2 5.05 3.84v-7.32c0-4.32-1.002-7.2-3.006-8.64-1.924-1.44-4.93-2.16-9.018-2.16-3.047 0-5.411.4-7.095 1.2-1.683.8-2.886 1.68-3.607 2.64a22.094 22.094 0 0 1-3.006 3.12c-1.042.96-2.485 1.44-4.329 1.44h-.962c-1.603 0-2.886-.44-3.848-1.32-.882-.96-1.122-2.12-.721-3.48.401-1.44 1.042-3 1.924-4.68.881-1.679 2.204-3.239 3.968-4.679 1.843-1.44 4.168-2.64 6.974-3.6 2.886-.96 6.453-1.44 10.702-1.44 4.489 0 8.256.52 11.303 1.56 3.046 1.04 5.491 2.64 7.334 4.8 1.924 2.16 3.287 4.919 4.089 8.279.881 3.28 1.322 7.2 1.322 11.76v29.4c0 1.6-.521 2.92-1.563 3.96-.962.96-2.244 1.44-3.848 1.44h-3.006c-1.122 0-2.004-.32-2.645-.96-.641-.64-.962-1.52-.962-2.64v-3.72Zm-27.175-10.68c0 2 .761 3.92 2.284 5.76 1.524 1.76 3.848 2.64 6.975 2.64 1.122 0 2.284-.08 3.487-.24a42.95 42.95 0 0 0 3.727-.72c1.443-.32 2.926-.8 4.449-1.44 3.046-1.28 5.01-3.52 5.892-6.72.241-1.28.201-2.48-.12-3.6-.321-1.04-.882-1.84-1.683-2.4-.722-.56-1.644-.96-2.766-1.2-1.042-.24-2.204-.36-3.487-.36a65.817 65.817 0 0 0-4.088-.12h-7.456c-2.565 0-4.408.92-5.531 2.76-1.122 1.76-1.683 3.64-1.683 5.64Zm64.591 12.6c0 1.6-.521 2.92-1.564 3.96-.962.96-2.244 1.44-3.847 1.44h-1.203c-1.603 0-2.926-.48-3.968-1.44-.962-1.04-1.443-2.36-1.443-3.96V148.6c0-1.6.481-2.88 1.443-3.84 1.042-1.04 2.365-1.56 3.968-1.56h3.367c.962 0 1.723.32 2.285.96.641.56.962 1.32.962 2.28v3.24c2.004-2.32 4.409-3.96 7.214-4.92 2.806-1.04 6.012-1.56 9.62-1.56h3.006c.882 0 1.563.28 2.044.84.561.56.842 1.28.842 2.16v5.999c0 .88-.281 1.6-.842 2.16-.481.56-1.162.84-2.044.84h-3.006c-1.764 0-3.648.2-5.652.6-1.924.32-3.727.96-5.411 1.92a12.172 12.172 0 0 0-4.208 3.6c-1.042 1.44-1.563 3.24-1.563 5.4v31.08Zm45.519-71.999c0 1.6-.521 2.92-1.563 3.96-.962.96-2.244 1.44-3.848 1.44h-1.202c-1.603 0-2.926-.48-3.968-1.44-.962-1.04-1.443-2.36-1.443-3.96v-1.2c0-1.6.481-2.88 1.443-3.84 1.042-1.04 2.365-1.56 3.968-1.56h1.202c1.604 0 2.886.52 3.848 1.56 1.042.96 1.563 2.24 1.563 3.84v1.2Zm0 71.999c0 1.6-.521 2.92-1.563 3.96-.962.96-2.244 1.44-3.848 1.44h-1.202c-1.603 0-2.926-.48-3.968-1.44-.962-1.04-1.443-2.36-1.443-3.96V148.6c0-1.6.481-2.88 1.443-3.84 1.042-1.04 2.365-1.56 3.968-1.56h1.202c1.604 0 2.886.52 3.848 1.56 1.042.96 1.563 2.24 1.563 3.84v49.199Zm59.593 0c0 1.6-.522 2.92-1.564 3.96-.962.96-2.244 1.44-3.847 1.44h-38.358c-1.604 0-2.926-.48-3.968-1.44-.962-1.04-1.443-2.36-1.443-3.96v-4.56c0-1.28.481-2.48 1.443-3.6l31.023-34.44h-24.65c-1.604 0-2.926-.48-3.968-1.44-.962-1.04-1.443-2.36-1.443-3.959v-1.2c0-1.6.481-2.88 1.443-3.84 1.042-1.04 2.364-1.56 3.968-1.56h35.953c1.603 0 2.885.52 3.847 1.56 1.042.96 1.564 2.24 1.564 3.84v3.959c0 1.44-.481 2.64-1.443 3.6l-31.504 35.04h27.536c1.603 0 2.885.52 3.847 1.56 1.042.96 1.564 2.24 1.564 3.84v1.2Z"/><defs><linearGradient id="a" x1="233.915" x2="233.915" y1="70" y2="250" gradientUnits="userSpaceOnUse"><stop stop-color="#FF9500"/><stop offset="1" stop-color="#FF5E3A"/></linearGradient></defs><style>@media(prefers-color-scheme:dark){#b{fill:#ccc}}</style></svg>
